<?xml version="1.0" standalone="no"?>
<!DOCTYPE svg PUBLIC "-//W3C//DTD SVG 20010904//EN"
 "http://www.w3.org/TR/2001/REC-SVG-20010904/DTD/svg10.dtd">
<svg version="1.0" xmlns="http://www.w3.org/2000/svg"
 width="600.000000pt" height="600.000000pt" viewBox="0 0 600.000000 600.000000"
 preserveAspectRatio="xMidYMid meet">
<g transform="translate(0.000000,600.000000) scale(0.100000,-0.100000)"
fill="#ffffff" stroke="none">
<path d="M2750 5683 c-552 -58 -1083 -296 -1485 -666 -460 -424 -730 -927
-836 -1557 -32 -191 -33 -542 -2 -741 110 -699 451 -1288 990 -1712 155 -121
291 -206 478 -297 248 -121 455 -186 736 -232 177 -29 534 -31 707 -5 472 72
890 253 1265 549 213 169 454 440 599 674 527 853 526 1931 -3 2771 -194 308
-477 596 -792 805 -113 76 -307 178 -442 233 -191 79 -472 150 -687 174 -89
10 -446 13 -528 4z m650 -167 c495 -86 929 -305 1288 -650 393 -379 636 -836
733 -1383 31 -171 38 -513 14 -689 -76 -580 -306 -1055 -708 -1463 -361 -366
-826 -611 -1332 -702 -113 -20 -163 -23 -380 -24 -158 0 -281 5 -335 13 -539
83 -996 311 -1383 691 -851 834 -993 2163 -335 3141 405 600 1049 1001 1738
1079 52 6 109 13 125 15 17 3 120 3 230 1 157 -3 231 -9 345 -29z"/>
<path d="M2820 5484 c-403 -48 -650 -122 -950 -284 -590 -321 -1021 -871
-1185 -1515 -58 -226 -70 -331 -70 -605 1 -268 14 -377 76 -617 78 -306 246
-641 445 -890 99 -123 260 -285 384 -385 361 -290 810 -475 1265 -519 145 -14
430 -6 567 15 568 91 1098 393 1469 838 263 315 443 687 523 1079 64 316 60
706 -10 1014 -99 434 -328 852 -633 1155 -390 387 -834 614 -1361 695 -100 15
-446 28 -520 19z m190 -297 c5 -137 11 -150 60 -145 36 4 49 40 56 161 l6 107
29 0 29 0 -1 -72 c-1 -140 -12 -188 -47 -219 -26 -23 -42 -29 -80 -29 -106 0
-136 70 -116 269 7 60 8 62 33 59 l26 -3 5 -128z m-152 99 c5 -25 -8 -32 -66
-35 -26 -1 -50 -5 -53 -9 -4 -4 -5 -22 -2 -41 l6 -33 50 6 c36 5 52 4 58 -6
18 -27 8 -37 -46 -43 l-55 -7 0 -45 0 -44 70 7 c70 7 70 6 70 -18 0 -24 -4
-25 -92 -36 -51 -6 -94 -9 -97 -7 -11 12 -37 307 -26 311 19 7 130 22 155 20
16 0 26 -8 28 -20z m602 -26 c11 -6 26 -23 34 -39 26 -49 2 -102 -61 -136 -2
-1 8 -34 21 -73 26 -74 24 -78 -21 -66 -18 5 -27 21 -43 75 -18 60 -24 69 -45
69 -20 0 -24 -6 -30 -42 -11 -75 -14 -79 -43 -72 -15 4 -28 8 -30 10 -3 2 31
187 53 290 5 20 6 21 75 8 39 -8 80 -18 90 -24z m-870 -15 c0 -20 -6 -25 -35
-31 -43 -8 -43 -9 -10 -150 27 -112 25 -123 -17 -124 -18 0 -20 4 -43 105 -34
151 -30 144 -73 134 -52 -12 -52 -12 -52 16 0 26 2 27 135 59 87 21 95 20 95
-9z m1243 -94 c93 -42 116 -85 82 -152 -11 -20 -26 -32 -46 -36 l-31 -6 7 -78
c4 -44 5 -79 2 -79 -4 0 -17 5 -31 11 -26 12 -36 43 -36 110 0 29 -5 41 -21
50 -26 13 -31 8 -54 -54 -15 -41 -21 -47 -39 -41 -12 3 -25 10 -29 13 -6 6 87
246 110 284 7 11 17 9 86 -22z m-1499 -101 c58 -65 106 -124 106 -129 0 -6
-12 -14 -27 -17 -21 -6 -31 -1 -52 24 l-26 31 -52 -22 c-52 -21 -53 -23 -53
-63 0 -34 -4 -43 -25 -52 -14 -7 -28 -12 -30 -12 -3 0 -5 76 -5 168 0 165 0
169 23 180 12 6 25 11 29 11 3 1 54 -53 112 -119z m-272 -121 l86 -130 -24
-16 c-14 -8 -26 -14 -28 -12 -2 2 -31 46 -65 98 -33 51 -61 90 -61 86 0 -5 10
-55 22 -112 21 -101 21 -103 2 -117 -24 -18 -30 -14 -129 70 -77 67 -79 67
-56 29 103 -172 106 -177 86 -191 -10 -8 -22 -14 -26 -14 -4 0 -42 61 -85 136
-74 131 -77 137 -58 151 48 36 49 36 135 -39 46 -39 84 -67 86 -61 2 5 -6 49
-17 97 -11 48 -20 95 -20 104 0 15 43 52 60 51 3 0 44 -58 92 -130z m2102 -30
c-39 -205 -47 -245 -53 -251 -4 -4 -17 -1 -29 8 -19 13 -22 23 -20 61 3 44 2
46 -44 72 l-46 26 -26 -24 c-19 -18 -31 -22 -51 -17 -15 4 -25 12 -22 19 2 7
59 58 126 115 l122 103 28 -20 29 -21 -14 -71z m-949 -39 c428 -49 855 -281
1136 -616 323 -387 471 -900 398 -1389 -56 -376 -232 -718 -511 -993 -325
-321 -713 -490 -1168 -509 -496 -20 -964 164 -1319 518 -420 421 -600 1018
-481 1589 156 742 761 1303 1510 1399 94 12 330 12 435 1z m1252 -127 c20 -49
16 -85 -16 -136 -32 -50 -91 -87 -139 -87 -28 0 -88 34 -147 83 -34 29 -43 12
89 164 l88 103 56 -48 c30 -26 61 -61 69 -79z m-2839 -19 c37 -21 100 -55 140
-76 39 -22 72 -41 72 -43 0 -1 -11 -10 -25 -19 -23 -15 -28 -15 -55 -1 -38 20
-39 20 -84 -20 l-39 -35 13 -40 c13 -38 12 -42 -8 -62 l-21 -22 -10 25 c-5 13
-29 74 -54 134 -61 151 -62 153 -41 176 24 26 35 24 112 -17z m2994 -108 c16
-22 15 -24 -99 -130 l-116 -107 -21 21 -21 21 115 109 c63 60 117 109 120 109
3 0 13 -10 22 -23z m122 -155 c65 -43 86 -132 46 -198 -25 -41 -92 -84 -143
-91 -75 -10 -147 54 -147 131 0 48 12 76 49 113 62 63 140 81 195 45z m-3349
-76 c129 -95 131 -96 102 -122 -22 -21 -22 -21 -137 -3 -63 10 -116 17 -118
15 -1 -1 36 -29 82 -61 83 -58 97 -77 66 -96 -12 -8 -45 11 -138 77 -67 48
-122 90 -122 94 0 3 9 17 19 30 l18 23 102 -16 c56 -9 109 -16 119 -16 9 0
-19 25 -63 55 -44 31 -82 60 -83 66 -6 16 20 40 36 34 7 -3 60 -39 117 -80z
m-188 -246 c24 -11 57 -37 73 -57 72 -88 8 -222 -107 -222 -43 0 -127 44 -153
79 -47 67 -31 152 39 198 42 29 92 29 148 2z m3799 -120 c55 -54 71 -139 26
-139 -15 0 -22 11 -31 44 -17 71 -64 92 -135 62 -73 -30 -97 -96 -56 -149 23
-30 25 -41 7 -55 -30 -25 -87 53 -87 118 0 128 185 208 276 119z m-4035 -139
c-9 -64 -13 -61 112 -102 105 -36 117 -42 117 -63 0 -13 -4 -26 -9 -29 -4 -3
-62 12 -127 34 -65 22 -121 40 -124 40 -4 0 -12 -18 -19 -40 -13 -43 -18 -47
-45 -27 -16 12 -15 19 20 115 32 90 39 103 58 100 16 -2 20 -9 17 -28z m4133
-92 c3 -13 2 -26 -2 -29 -4 -4 -54 -22 -112 -39 -58 -18 -109 -36 -113 -40 -5
-4 -1 -31 7 -61 17 -55 11 -73 -19 -67 -13 2 -25 27 -42 87 -13 46 -23 84 -21
85 10 7 266 85 279 85 9 1 19 -9 23 -21z m-3932 -133 c5 -5 -30 -164 -38 -174
-2 -3 -164 33 -266 60 -26 7 -38 15 -38 27 1 41 12 42 130 12 63 -16 120 -30
126 -30 6 0 17 21 24 48 7 26 15 50 17 55 5 8 37 10 45 2z m4001 -111 c5 -30
8 -29 -112 -49 -52 -9 -103 -21 -113 -26 -38 -20 -31 -90 11 -104 10 -3 61 1
112 10 128 20 129 20 129 -13 l0 -28 -119 -18 c-109 -17 -120 -17 -149 -2 -66
34 -84 132 -33 188 25 28 39 34 127 49 139 24 141 24 147 -7z m-4229 -105
c114 -14 131 -21 156 -61 24 -39 25 -78 5 -118 -32 -62 -78 -71 -240 -47 -77
12 -80 13 -77 37 2 14 5 26 6 27 2 2 51 -2 109 -9 131 -14 157 -6 157 46 0 47
-15 54 -147 67 -59 7 -109 13 -111 14 -2 1 0 14 4 29 7 30 11 31 138 15z
m4271 -264 c8 -68 -1 -113 -28 -142 -26 -28 -66 -29 -100 -3 -25 20 -26 20
-32 1 -7 -25 -55 -44 -88 -36 -49 13 -62 39 -65 136 l-4 88 74 4 c40 1 110 4
154 5 l82 2 7 -55z m-4375 -85 l0 -60 40 0 40 0 0 55 c0 52 1 55 24 55 23 0
25 -4 28 -52 l3 -53 68 -3 c67 -3 67 -3 67 -32 l0 -30 -160 0 -160 0 0 90 c0
89 0 90 25 90 24 0 25 -3 25 -60z m3745 -1145 c17 -47 40 -84 68 -113 38 -39
40 -43 25 -58 -15 -15 -20 -14 -60 18 -32 26 -63 40 -120 54 -43 10 -78 20
-78 24 0 3 6 14 13 24 13 18 16 18 66 1 29 -9 54 -15 56 -13 2 2 -6 27 -20 55
-21 47 -22 53 -8 73 19 28 26 21 58 -65z m-3031 -29 c30 -27 36 -40 36 -73 0
-48 -30 -97 -80 -131 -49 -34 -113 -26 -152 17 -72 81 3 221 119 221 34 0 48
-6 77 -34z m2900 -141 c114 -128 111 -123 91 -144 -19 -21 -25 -20 -139 23
-37 14 -70 26 -73 26 -2 0 23 -31 58 -70 52 -59 60 -72 49 -85 -7 -8 -16 -15
-20 -15 -4 0 -46 44 -93 99 -86 98 -86 99 -66 117 20 18 22 18 97 -8 42 -15
86 -30 97 -34 12 -5 -4 19 -39 59 -49 56 -56 69 -46 82 7 8 15 15 19 15 3 0
32 -29 65 -65z m-2737 -25 c43 -26 58 -54 37 -71 -14 -11 -19 -9 -36 14 -25
35 -68 38 -68 5 0 -13 6 -41 14 -62 40 -114 -95 -164 -156 -58 -16 27 -16 31
-2 42 12 11 19 8 42 -20 18 -21 34 -31 47 -28 21 4 22 8 9 114 -5 46 -3 53 17
68 31 21 57 20 96 -4z m106 -102 c7 -11 0 -40 -26 -104 l-37 -88 52 50 c29 27
58 57 66 67 16 20 31 21 55 3 16 -13 16 -18 -14 -92 -17 -44 -34 -83 -37 -89
-2 -5 26 20 64 57 57 55 72 65 87 57 9 -6 17 -14 17 -18 0 -5 -43 -48 -95 -95
-83 -77 -97 -86 -115 -76 -26 14 -26 24 10 110 17 40 30 75 30 78 0 3 -29 -23
-64 -56 -35 -34 -67 -62 -71 -62 -3 0 -15 5 -26 11 -23 12 -23 9 27 149 19 52
37 101 40 108 5 17 24 11 37 -10z m2337 -115 c0 -64 4 -79 32 -124 30 -50 31
-52 13 -65 -10 -8 -21 -14 -24 -14 -3 0 -19 21 -36 47 -21 33 -50 59 -98 88
-67 40 -74 50 -45 68 11 7 27 2 61 -21 25 -18 48 -32 51 -32 3 0 3 27 -1 60
-5 52 -3 63 13 74 27 20 34 4 34 -81z m-192 -45 c18 -18 15 -24 -18 -38 -16
-7 -30 -14 -30 -15 0 -1 20 -46 45 -100 35 -76 43 -100 34 -111 -6 -8 -15 -14
-20 -14 -5 0 -31 45 -59 100 l-50 100 -30 -15 c-27 -14 -30 -14 -40 4 -9 18
-2 24 68 60 89 46 84 45 100 29z m-1748 -85 c0 -23 -22 -25 -62 -7 -39 18 -41
18 -54 -1 -20 -28 -18 -33 26 -55 27 -14 38 -25 34 -35 -8 -19 -16 -19 -59 -1
-33 14 -36 14 -50 -7 -23 -32 -19 -42 25 -62 48 -22 56 -31 40 -50 -10 -12
-22 -9 -76 18 -35 17 -64 37 -64 44 0 7 25 63 55 123 l55 110 65 -32 c36 -18
65 -38 65 -45z m1585 -120 c22 -65 40 -122 40 -127 0 -5 -10 -12 -22 -17 -23
-8 -28 -5 -113 75 -68 64 -71 63 -39 -24 16 -44 29 -84 29 -89 0 -13 -32 -23
-42 -13 -4 4 -26 60 -47 123 -36 103 -38 115 -23 127 27 20 38 15 114 -57 40
-38 74 -68 75 -67 1 1 -12 39 -29 85 -26 69 -29 84 -17 92 8 5 19 9 24 9 6 0
28 -53 50 -117z m-1411 63 c71 -29 55 -69 -16 -42 -57 22 -93 10 -113 -39 -22
-50 -19 -73 14 -106 38 -37 56 -37 70 2 9 27 8 32 -9 36 -22 6 -24 11 -11 31
6 10 14 10 32 3 13 -5 32 -12 41 -15 16 -5 16 -9 -3 -63 -11 -31 -23 -61 -28
-66 -5 -5 -33 -2 -64 7 -73 21 -107 60 -107 122 0 110 93 172 194 130z m1148
-123 c11 -49 17 -102 13 -120 -8 -44 -47 -73 -100 -73 -71 0 -100 51 -122 208
-5 40 -4 42 19 42 23 0 26 -6 41 -87 23 -117 58 -152 102 -103 18 20 18 23 -2
116 l-21 96 22 8 c11 4 23 6 24 5 2 -2 13 -43 24 -92z m-894 50 c62 -39 65
-148 7 -211 -31 -34 -38 -37 -86 -36 -45 0 -56 5 -81 32 -57 65 -33 187 45
226 35 17 77 14 115 -11z m614 -52 c47 -52 49 -145 5 -196 -45 -53 -139 -48
-181 8 -16 22 -21 43 -21 94 0 62 1 66 39 100 35 32 42 35 84 30 35 -4 53 -12
74 -36z m-238 20 c15 -23 -6 -39 -43 -34 -30 4 -43 0 -64 -18 -75 -68 -14
-187 82 -162 19 5 22 2 19 -18 -3 -22 -7 -24 -61 -24 -50 0 -61 4 -88 32 -57
56 -50 155 13 208 23 20 41 25 83 25 30 0 56 -4 59 -9z m-526 -277 c34 -10 28
-35 -7 -28 -41 9 -45 -9 -11 -45 35 -36 36 -45 10 -71 -23 -23 -29 -24 -64
-10 -39 15 -33 32 9 24 41 -7 48 11 15 41 -29 26 -34 54 -14 76 18 20 26 22
62 13z m1082 -8 c0 -38 -34 -155 -46 -160 -18 -7 -18 -8 11 121 5 20 2 21 -30
16 -44 -7 -46 11 -2 25 46 14 67 14 67 -2z m-1001 -63 c-5 -27 -11 -63 -14
-80 -4 -20 -12 -33 -20 -33 -18 0 -18 1 -4 76 15 80 16 84 32 84 12 0 13 -9 6
-47z m869 35 c-3 -7 -17 -14 -32 -16 -35 -4 -32 -33 4 -39 26 -4 50 -28 50
-50 0 -23 -39 -53 -70 -53 -40 0 -38 13 3 25 22 7 32 16 32 30 0 15 -8 21 -32
23 -31 3 -33 6 -33 42 0 32 4 39 23 43 44 8 59 7 55 -5z m-769 -60 l28 -61 5
52 c5 54 11 67 25 58 5 -3 5 -39 -1 -81 -8 -63 -12 -76 -27 -76 -13 0 -24 18
-40 62 -13 34 -24 57 -25 52 -1 -5 -5 -30 -9 -56 -4 -33 -11 -48 -21 -48 -12
0 -14 7 -10 28 3 15 8 51 11 80 9 71 29 68 64 -10z m635 33 c9 -10 18 -37 19
-61 1 -35 -3 -46 -26 -66 -29 -25 -57 -32 -57 -14 0 6 11 15 24 22 35 15 43
40 11 32 -34 -8 -55 11 -55 52 0 51 51 72 84 35z m-426 -8 c2 -9 -8 -13 -32
-13 -38 0 -56 -20 -56 -62 0 -32 18 -48 52 -48 18 0 28 -5 28 -15 0 -22 -52
-19 -84 6 -58 46 -17 154 56 147 17 -2 33 -9 36 -15z m122 -3 c0 -5 -13 -10
-30 -10 -23 0 -30 -5 -30 -19 0 -13 9 -20 30 -24 17 -4 30 -11 30 -17 0 -5
-13 -10 -30 -10 -25 0 -30 -4 -30 -25 0 -21 5 -25 30 -25 17 0 30 -5 30 -11 0
-6 -19 -9 -47 -7 -27 2 -47 6 -45 11 1 4 2 39 2 77 l0 70 45 0 c25 0 45 -4 45
-10z m161 -65 c3 -39 2 -74 -2 -79 -17 -19 -29 9 -29 66 0 49 -3 59 -15 54
-18 -7 -21 20 -2 27 33 14 42 2 48 -68z"/>
<path d="M3346 5217 c-3 -12 -6 -35 -6 -50 0 -27 1 -28 48 -25 45 3 47 4 50
35 3 34 -8 44 -59 57 -22 5 -28 2 -33 -17z"/>
<path d="M3770 5069 c-16 -47 -7 -59 47 -59 57 0 70 65 17 88 -40 19 -50 14
-64 -29z"/>
<path d="M2222 5035 c3 -30 7 -58 10 -61 4 -3 20 2 37 11 l32 16 -37 44 c-20
25 -39 45 -41 45 -3 0 -3 -25 -1 -55z"/>
<path d="M4065 4894 c-53 -47 -53 -46 -2 -75 10 -6 20 -9 21 -7 4 5 35 123 33
124 -1 1 -24 -18 -52 -42z"/>
<path d="M2850 4770 c-203 -20 -406 -78 -582 -166 -135 -67 -201 -109 -308
-195 -365 -291 -578 -693 -622 -1176 -25 -275 33 -583 157 -838 369 -758 1233
-1126 2030 -864 126 41 332 146 445 226 125 90 298 263 389 391 214 300 325
672 308 1027 -29 573 -322 1066 -814 1365 -288 176 -668 263 -1003 230z m302
-280 c-6 -64 -33 -141 -94 -265 -69 -142 -84 -218 -54 -288 19 -48 2 -46 -31
3 -43 63 -30 135 60 320 52 107 87 208 87 253 0 12 6 17 18 15 13 -3 16 -12
14 -38z m63 -12 c-10 -74 -28 -124 -97 -271 -64 -136 -79 -197 -58 -247 21
-52 82 -71 141 -46 11 5 19 1 23 -9 4 -12 -4 -20 -29 -31 -48 -20 -77 -18
-116 9 -91 61 -90 146 6 346 35 75 72 168 81 206 22 97 21 95 40 95 13 0 15
-8 9 -52z m-702 -347 c76 -134 136 -249 133 -257 -10 -26 -25 -14 -65 54 -69
119 -198 347 -220 391 -21 41 -20 66 2 58 6 -2 74 -113 150 -246z m338 24 c21
-88 38 -170 38 -182 1 -22 -15 -40 -26 -29 -8 7 -83 333 -83 358 0 13 6 18 17
16 13 -2 25 -40 54 -163z m-88 -25 c61 -194 62 -196 42 -203 -19 -8 -13 -22
-79 187 -38 117 -50 168 -43 175 19 19 32 -8 80 -159z m220 74 c-35 -72 -48
-112 -51 -155 -2 -33 -8 -59 -12 -59 -5 0 -22 60 -40 133 -17 72 -33 140 -36
149 -6 21 11 25 108 27 l77 1 -46 -96z m300 60 c37 -9 67 -20 67 -24 0 -4 -26
-65 -58 -136 -66 -145 -55 -137 -169 -113 l-55 11 6 36 c3 20 29 85 58 144 38
79 56 107 67 104 9 -2 46 -12 84 -22z m-514 -31 c5 -21 12 -54 15 -73 5 -29 3
-26 -13 15 -30 82 -33 95 -22 95 6 0 15 -17 20 -37z m649 16 c4 -26 -142 -334
-161 -337 -9 -2 -17 2 -17 9 0 6 28 73 61 148 34 75 68 151 76 169 14 33 36
39 41 11z m-810 -20 c29 -56 131 -289 134 -306 6 -36 -27 -18 -50 27 -67 133
-132 285 -127 297 7 20 27 11 43 -18z m75 -61 c42 -118 40 -129 -7 -33 -24 50
-41 93 -39 98 11 18 23 2 46 -65z m1048 43 c26 -26 29 -36 29 -94 0 -72 -20
-118 -92 -214 -140 -184 -162 -221 -183 -308 l-8 -30 -8 30 c-16 58 16 127
131 281 123 164 145 218 116 287 -17 42 -49 55 -96 38 -32 -11 -60 -6 -60 10
0 15 41 28 93 28 41 1 53 -4 78 -28z m-236 9 c9 -14 -163 -340 -179 -340 -7 0
-16 3 -19 7 -4 3 25 67 64 142 108 205 117 218 134 191z m-889 -136 c30 -64
57 -127 60 -140 13 -52 -14 -18 -83 104 -63 113 -70 128 -55 140 9 6 17 12 19
12 3 0 29 -52 59 -116z m964 83 c0 -13 -163 -292 -184 -314 -6 -7 -16 -9 -24
-4 -14 8 24 85 115 230 19 31 42 66 49 79 16 24 44 30 44 9z m119 -1 c10 -12
3 -15 -36 -18 -52 -5 -78 6 -53 22 22 14 76 12 89 -4z m121 -93 c0 -69 -20
-108 -127 -250 -98 -131 -133 -197 -133 -254 0 -54 14 -77 58 -97 l37 -17 -40
-3 c-34 -3 -44 1 -67 27 -23 26 -28 41 -28 85 0 70 34 137 146 286 103 136
127 186 128 258 1 44 3 50 14 35 6 -9 12 -41 12 -70z m-1298 -69 c37 -65 68
-123 68 -129 0 -17 -52 -55 -65 -47 -7 4 -58 50 -113 103 l-100 97 31 29 c46
42 90 73 102 69 6 -1 40 -56 77 -122z m1123 84 c24 -18 44 -40 45 -49 0 -17
-61 -106 -132 -191 l-40 -48 -39 32 c-21 17 -39 35 -39 39 0 13 145 249 153
249 4 0 28 -15 52 -32z m-1375 -65 c25 -14 88 -68 140 -119 105 -102 162 -144
194 -144 26 0 46 18 46 41 0 18 39 71 40 54 0 -5 -5 -27 -11 -47 -16 -59 -92
-88 -149 -58 -14 7 -69 55 -123 107 -126 120 -190 163 -259 172 -50 7 -51 8
-28 19 35 16 97 6 150 -25z m-89 -25 c54 -18 116 -65 226 -170 102 -99 132
-118 181 -118 66 0 128 75 120 146 -3 28 -2 31 17 24 16 -6 20 -16 18 -50 -4
-86 -70 -150 -155 -150 -72 0 -101 18 -230 139 -64 59 -133 116 -154 126 -55
27 -122 25 -146 -5 -22 -28 -24 -90 -2 -132 10 -20 12 -34 6 -40 -16 -16 -29
-1 -47 53 -29 85 -8 145 60 175 38 17 63 17 106 2z m1019 -57 c0 -12 -45 -22
-65 -15 -13 5 -14 8 -3 15 17 11 68 11 68 0z m-1105 -21 c-3 -10 -2 -35 3 -54
7 -25 7 -40 -2 -52 -11 -14 -14 -11 -26 30 -11 40 -10 49 4 71 20 30 30 33 21
5z m1775 -70 c44 -65 114 -199 107 -206 -2 -2 -62 -24 -133 -48 -71 -24 -136
-47 -146 -51 -13 -5 -23 8 -48 60 -17 36 -29 72 -26 80 2 7 44 65 92 129 98
131 91 129 154 36z m-1529 -46 l82 -82 -38 -61 c-21 -34 -40 -61 -42 -61 -9 0
-263 131 -263 135 0 8 26 49 78 123 l44 62 29 -17 c15 -9 65 -54 110 -99z
m-140 -160 c135 -69 161 -89 143 -107 -11 -11 -324 152 -324 168 0 26 29 17
181 -61z m2034 36 c0 -10 -79 -42 -265 -107 -254 -88 -310 -103 -310 -84 0 18
32 33 201 90 96 33 210 73 254 90 85 32 120 35 120 11z m-2071 -88 c61 -32
118 -61 126 -64 8 -3 12 -8 9 -12 -6 -6 -267 68 -278 79 -5 6 16 55 25 55 3 0
56 -26 118 -58z m-25 -58 c153 -46 181 -57 181 -75 0 -17 -46 -9 -202 38 -129
38 -158 50 -158 65 0 10 5 18 11 18 7 0 82 -21 168 -46z m1900 -98 c21 -107
22 -125 11 -173 -8 -30 -17 -56 -21 -59 -4 -2 -19 35 -34 83 -44 146 -45 151
-61 157 -9 3 -61 6 -117 6 -60 0 -97 4 -92 9 15 13 258 100 275 98 11 -2 22
-35 39 -121z m-399 74 c0 -15 -27 -12 -44 6 -26 25 -18 36 14 19 17 -9 30 -20
30 -25z m-1540 -29 c62 -19 94 -33 93 -42 -1 -8 -8 -43 -16 -79 l-14 -65 -12
45 c-22 80 -23 85 -33 98 -7 7 -35 12 -75 12 -55 0 -64 2 -59 16 3 9 6 22 6
30 0 18 -1 18 110 -15z m296 -79 c-15 -15 -16 -15 -16 1 0 10 -10 31 -21 46
-12 16 -18 34 -14 41 4 7 18 -4 37 -30 29 -38 30 -43 14 -58z m269 -3 c48 -23
78 -76 73 -130 -6 -58 -39 -106 -118 -173 -34 -29 -63 -56 -64 -61 0 -4 42 -8
94 -9 l95 -1 3 -52 3 -53 -185 0 c-210 0 -203 -4 -165 80 13 29 55 79 119 141
91 87 100 99 100 132 0 74 -87 87 -113 17 -12 -32 -35 -36 -99 -21 -26 6 -26
7 -13 44 17 49 50 85 89 97 43 13 145 7 181 -11z m462 6 c21 -9 46 -23 56 -33
19 -17 61 -91 55 -97 -2 -1 -26 -9 -54 -17 l-50 -15 -17 29 c-32 55 -111 58
-150 5 -23 -29 -33 -114 -23 -173 10 -49 46 -84 89 -84 41 0 84 31 94 69 l8
27 48 -14 c55 -16 64 -30 46 -74 -30 -73 -92 -108 -191 -108 -140 0 -219 89
-219 248 0 157 83 250 224 252 26 0 64 -7 84 -15z m-1278 -42 c6 -27 18 -87
27 -135 9 -49 20 -88 24 -88 4 0 10 15 14 33 3 17 18 78 33 135 l26 103 60 -3
60 -3 35 -132 c19 -73 38 -133 41 -133 3 0 17 60 31 133 l25 132 58 3 c36 2
57 -1 57 -8 0 -12 -98 -449 -105 -467 -5 -14 -110 -18 -119 -5 -4 7 -55 206
-70 275 -4 15 -10 27 -14 27 -4 0 -20 -54 -35 -119 -16 -66 -33 -136 -38 -155
l-10 -36 -59 0 c-54 0 -60 2 -65 23 -11 46 -105 461 -105 464 0 2 27 3 59 3
l59 0 11 -47z m1626 -28 c22 -41 42 -75 45 -75 3 0 23 34 45 75 l40 75 68 0
68 0 -28 -47 c-15 -27 -44 -76 -65 -111 -21 -34 -38 -68 -38 -75 0 -7 34 -68
75 -135 l75 -122 -73 0 -72 0 -46 82 -47 81 -37 -58 c-20 -32 -42 -69 -48 -82
-9 -21 -17 -23 -79 -23 -37 0 -68 3 -68 6 0 5 93 162 137 230 11 18 7 30 -46
116 -94 153 -93 138 -14 138 l68 0 40 -75z m489 -82 c26 -87 50 -166 53 -177
8 -28 18 -9 41 74 11 41 33 117 48 168 l28 92 63 0 62 0 -70 -202 c-39 -112
-78 -222 -86 -246 l-15 -43 -66 3 -65 3 -83 240 c-46 132 -83 241 -84 243 0 1
28 2 63 2 l63 0 48 -157z m126 137 c0 -5 -4 -10 -10 -10 -5 0 -10 5 -10 10 0
6 5 10 10 10 6 0 10 -4 10 -10z m-292 -127 c34 -104 32 -113 -20 -113 -26 0
-26 0 -30 93 -7 151 5 156 50 20z m-1398 -41 c0 -4 -13 -16 -30 -25 -29 -18
-30 -18 -30 1 0 10 3 22 7 25 9 10 53 9 53 -1z m1450 -107 c0 -27 -149 -35
-157 -8 -5 13 26 19 105 22 39 1 52 -2 52 -14z m-1795 -117 c10 -40 24 -83 31
-95 19 -30 19 -29 -17 -42 -40 -14 -44 -11 -58 42 -10 33 -10 54 -1 88 17 65
21 79 25 79 1 0 11 -33 20 -72z m1815 58 c0 -20 -129 -33 -141 -15 -12 21 10
29 79 29 46 0 62 -4 62 -14z m39 -108 l29 -67 -65 25 c-36 13 -67 24 -69 24
-6 0 -44 63 -44 72 0 6 75 16 108 14 7 -1 26 -31 41 -68z m-1599 47 c0 -8 0
-18 1 -22 0 -4 -4 -9 -10 -11 -6 -2 -11 8 -11 22 0 14 5 26 10 26 6 0 10 -7
10 -15z m1245 -96 c1 -30 4 -63 6 -74 8 -39 -26 -21 -40 22 -12 34 -13 48 -2
83 16 55 32 41 36 -31z m-1217 29 c-2 -17 -31 -33 -155 -86 -143 -60 -203 -73
-174 -38 19 23 159 76 200 76 30 0 44 6 55 22 15 21 52 47 69 48 5 0 7 -10 5
-22z m1258 -39 c3 -6 2 -15 -4 -21 -6 -6 -11 -2 -15 11 -5 22 7 29 19 10z
m324 -25 c77 -28 100 -41 98 -53 -5 -21 -20 -18 -143 26 -115 42 -114 41 -95
53 22 14 30 13 140 -26z m-1959 4 c22 -6 39 -17 39 -25 0 -21 -41 -15 -85 12
-35 21 -37 24 -16 25 13 0 41 -5 62 -12z m439 -1 c0 -8 -64 -50 -142 -94 -195
-110 -188 -107 -201 -94 -16 16 -11 19 158 115 147 84 185 99 185 73z m164 -9
c26 -98 -6 -171 -178 -407 -70 -96 -141 -196 -158 -223 -31 -48 -58 -63 -58
-32 0 19 72 126 211 314 54 74 110 158 124 187 26 55 33 129 15 164 -9 16 -7
19 13 19 17 0 27 -7 31 -22z m1261 -26 c111 -41 129 -51 127 -68 -2 -10 -6
-21 -8 -24 -3 -2 -69 28 -147 67 -78 40 -133 72 -122 72 11 0 79 -21 150 -47z
m178 37 c-8 -8 -16 -8 -30 0 -16 9 -14 10 12 11 21 0 26 -3 18 -11z m-1513
-14 c10 -12 9 -15 -7 -15 -10 0 -28 7 -39 15 -18 14 -18 14 7 15 15 0 32 -7
39 -15z m1328 -83 c87 -44 142 -78 142 -87 0 -8 -7 -15 -15 -15 -27 0 -335
160 -335 173 0 35 -2 35 208 -71z m-1583 59 c-24 -21 -154 -85 -161 -78 -11
10 -4 15 82 52 84 37 94 40 79 26z m385 -80 c0 -65 -31 -124 -157 -296 -60
-82 -133 -185 -161 -227 -57 -84 -69 -95 -84 -80 -11 11 67 131 226 347 103
139 145 222 148 289 2 41 4 45 15 30 7 -10 13 -38 13 -63z m-260 45 c-8 -8
-62 -46 -119 -85 -74 -50 -107 -67 -112 -59 -5 7 -7 13 -6 15 5 5 242 142 247
143 2 0 -2 -6 -10 -14z m90 0 c0 -15 -35 -41 -214 -164 -79 -55 -123 -69 -113
-38 5 17 289 214 310 215 9 1 17 -6 17 -13z m1440 -142 c0 -6 -6 -17 -14 -23
-10 -9 -40 8 -135 75 -66 47 -121 87 -121 90 0 2 61 -26 135 -63 74 -37 135
-73 135 -79z m-152 26 c133 -96 166 -130 125 -130 -26 1 -297 203 -301 224 -7
32 25 15 176 -94z m-1273 43 c17 -25 17 -28 -1 -57 -29 -49 -156 -216 -164
-216 -9 0 -110 110 -110 119 0 4 50 40 111 81 61 41 115 81 121 87 15 19 24
16 43 -14z m791 -12 c57 -37 124 -102 193 -186 68 -82 167 -178 205 -197 59
-30 103 -28 132 6 20 23 24 38 24 96 0 79 12 96 29 41 16 -55 14 -89 -9 -135
-24 -51 -50 -68 -105 -68 -82 0 -148 49 -287 214 -115 137 -206 217 -281 246
l-52 21 46 0 c37 1 57 -6 105 -38z m399 -115 c128 -121 146 -144 117 -154 -15
-5 -282 256 -282 275 0 29 31 5 165 -121z m42 35 c100 -73 112 -85 103 -102
-15 -27 -28 -18 -145 102 -55 57 -93 98 -85 92 8 -5 66 -47 127 -92z m-535 70
c66 -28 132 -88 258 -232 133 -153 166 -181 246 -214 l59 -25 -43 0 c-81 0
-140 40 -255 175 -98 115 -186 202 -238 236 -55 35 -124 48 -158 30 -23 -13
-61 -80 -61 -109 0 -10 -9 -27 -21 -38 l-21 -19 8 50 c12 84 46 140 94 158 31
11 90 6 132 -12z m-112 -81 c-11 -21 -20 -53 -20 -70 0 -32 -11 -38 -28 -17
-16 18 3 87 30 110 33 28 40 20 18 -23z m563 -68 l108 -108 -47 -37 -48 -37
-39 37 c-46 45 -171 193 -166 196 2 2 19 15 37 30 19 15 37 27 40 27 4 0 56
-49 115 -108z m-974 31 c17 -10 31 -21 31 -24 0 -3 -29 -68 -65 -143 l-66
-137 -47 27 c-80 45 -81 37 16 172 48 67 90 122 94 122 3 0 20 -8 37 -17z m98
-19 c4 -14 -152 -337 -165 -342 -32 -10 -17 41 57 193 73 151 97 185 108 149z
m98 -23 c5 -8 -28 -129 -89 -326 -13 -42 -46 -62 -46 -27 0 21 87 318 101 345
11 19 25 22 34 8z m447 -166 c32 -94 56 -176 55 -184 -4 -26 -27 -23 -38 6
-31 81 -108 337 -103 345 15 24 34 -12 86 -167z m-124 108 c51 -243 64 -325
54 -335 -8 -8 -15 -8 -21 -3 -11 11 -81 366 -74 378 12 22 32 2 41 -40z m231
-68 c56 -63 101 -119 101 -125 0 -11 -100 -60 -123 -60 -7 0 -33 61 -59 142
-67 200 -60 203 81 43z m-619 101 c0 -1 -4 -16 -9 -32 -6 -16 -26 -82 -46
-147 -34 -110 -37 -118 -58 -111 -12 3 -26 10 -30 14 -11 10 115 280 131 280
6 0 12 -2 12 -4z m139 -13 c0 -10 -13 -94 -27 -188 -23 -140 -30 -170 -45
-173 -23 -5 -22 8 8 203 13 88 25 163 25 168 0 4 9 7 20 7 13 0 20 -6 19 -17z
m89 -292 c2 -285 1 -302 -15 -299 -17 3 -18 25 -21 293 -1 159 0 296 3 303 3
8 11 12 18 10 9 -4 13 -76 15 -307z m-58 111 l0 -159 -30 5 c-24 3 -29 8 -25
26 2 11 11 71 20 131 30 206 35 206 35 -3z m178 46 c36 -190 36 -198 20 -198
-9 0 -35 -3 -60 -6 l-45 -6 -8 150 c-4 83 -4 156 0 161 3 6 21 11 39 11 l33 0
21 -112z m79 55 c-4 -3 -7 0 -7 7 0 7 3 10 7 7 3 -4 3 -10 0 -14z m593 -24 c0
-23 -17 -59 -28 -59 -4 0 -6 18 -4 40 4 42 32 59 32 19z m-974 -97 c-9 -55
-16 -102 -16 -106 0 -3 -7 -6 -15 -6 -8 0 -15 5 -15 11 0 19 54 208 58 204 2
-2 -3 -48 -12 -103z m453 -99 c2 -23 -28 -14 -34 10 -17 73 -35 171 -34 185 1
17 67 -172 68 -195z"/>
<path d="M4286 4703 c-36 -42 -66 -80 -66 -85 0 -13 62 -48 85 -48 52 0 115
68 115 124 0 24 -43 86 -60 86 -5 0 -38 -35 -74 -77z"/>
<path d="M1575 4650 c8 -16 20 -42 26 -56 l10 -27 29 28 30 29 -48 28 c-60 35
-66 35 -47 -2z"/>
<path d="M4645 4396 c-60 -27 -102 -87 -90 -127 24 -74 134 -60 185 23 26 43
25 64 -5 93 -27 28 -46 30 -90 11z"/>
<path d="M1076 4069 c-55 -43 -17 -123 72 -150 118 -35 152 95 40 150 -55 26
-78 26 -112 0z"/>
<path d="M5090 3122 c0 -41 14 -62 42 -62 22 0 38 29 38 69 0 29 -2 31 -40 31
-40 0 -40 0 -40 -38z"/>
<path d="M4950 3116 c0 -51 9 -66 39 -66 37 0 51 17 51 62 l0 38 -45 0 c-45 0
-45 0 -45 -34z"/>
<path d="M1426 1869 c-16 -12 -35 -38 -43 -57 -12 -30 -12 -37 2 -58 44 -68
177 25 149 104 -13 37 -68 42 -108 11z"/>
<path d="M2552 1233 c-20 -8 -42 -59 -42 -98 0 -25 8 -43 25 -60 31 -32 40
-31 76 4 24 25 29 38 29 80 0 40 -4 53 -22 65 -23 16 -42 19 -66 9z"/>
<path d="M3153 1200 c-27 -11 -37 -46 -30 -106 6 -54 21 -74 58 -74 38 0 59
33 59 93 0 38 -5 53 -25 72 -26 27 -29 28 -62 15z"/>
<path d="M3256 864 c-9 -23 19 -53 35 -37 15 15 7 47 -12 51 -9 2 -19 -5 -23
-14z"/>
</g>
</svg>
